<svg width="22" height="22" viewBox="0 0 22 22" fill="none" xmlns="http://www.w3.org/2000/svg">
<path d="M15.4461 0H6.55392C2.94007 0 0 2.94007 0 6.55392V15.4461C0 19.0599 2.94007 22 6.55392 22H15.4461C19.0599 22 22 19.0599 22 15.4461V6.55392C22 2.94007 19.0599 0 15.4461 0ZM19.7868 15.4461C19.7868 17.8434 17.8434 19.7868 15.4461 19.7868H6.55392C4.15663 19.7868 2.2132 17.8434 2.2132 15.4461V6.55392C2.2132 4.15659 4.15663 2.2132 6.55392 2.2132H15.4461C17.8434 2.2132 19.7868 4.15659 19.7868 6.55392V15.4461Z" fill="url(#paint0_linear)"/>
<path d="M11 5.31006C7.86258 5.31006 5.31006 7.86258 5.31006 11C5.31006 14.1374 7.86258 16.69 11 16.69C14.1375 16.69 16.69 14.1375 16.69 11C16.69 7.86254 14.1375 5.31006 11 5.31006ZM11 14.4768C9.07985 14.4768 7.52326 12.9202 7.52326 11C7.52326 9.07985 9.07989 7.52326 11 7.52326C12.9202 7.52326 14.4768 9.07985 14.4768 11C14.4768 12.9202 12.9202 14.4768 11 14.4768Z" fill="url(#paint1_linear)"/>
<path d="M16.7011 6.71613C17.4541 6.71613 18.0645 6.1057 18.0645 5.35269C18.0645 4.59969 17.4541 3.98926 16.7011 3.98926C15.9481 3.98926 15.3376 4.59969 15.3376 5.35269C15.3376 6.1057 15.9481 6.71613 16.7011 6.71613Z" fill="url(#paint2_linear)"/>
<defs>
<linearGradient id="paint0_linear" x1="11" y1="21.936" x2="11" y2="0.170878" gradientUnits="userSpaceOnUse">
<stop stop-color="#E09B3D"/>
<stop offset="0.3" stop-color="#C74C4D"/>
<stop offset="0.6" stop-color="#C21975"/>
<stop offset="1" stop-color="#7024C4"/>
</linearGradient>
<linearGradient id="paint1_linear" x1="11" y1="21.936" x2="11" y2="0.170922" gradientUnits="userSpaceOnUse">
<stop stop-color="#E09B3D"/>
<stop offset="0.3" stop-color="#C74C4D"/>
<stop offset="0.6" stop-color="#C21975"/>
<stop offset="1" stop-color="#7024C4"/>
</linearGradient>
<linearGradient id="paint2_linear" x1="16.7011" y1="21.9359" x2="16.7011" y2="0.170837" gradientUnits="userSpaceOnUse">
<stop stop-color="#E09B3D"/>
<stop offset="0.3" stop-color="#C74C4D"/>
<stop offset="0.6" stop-color="#C21975"/>
<stop offset="1" stop-color="#7024C4"/>
</linearGradient>
</defs>
</svg>
