<svg width="14" height="14" viewBox="0 0 14 14" fill="none" xmlns="http://www.w3.org/2000/svg">
<path d="M6.88128 0.430664C4.36571 0.430664 2.31909 2.47728 2.31909 4.99285C2.31909 8.15466 6.88577 13.5557 6.88577 13.5557C6.88577 13.5557 11.4435 7.99917 11.4435 4.99285C11.4435 2.47728 9.39693 0.430664 6.88128 0.430664ZM8.25779 6.32866C7.87823 6.70814 7.3798 6.89791 6.88128 6.89791C6.38284 6.89791 5.88425 6.70814 5.50485 6.32866C4.74582 5.56971 4.74582 4.33476 5.50485 3.57573C5.87239 3.20803 6.36129 3.00552 6.88128 3.00552C7.40126 3.00552 7.89009 3.20811 8.25779 3.57573C9.01682 4.33476 9.01682 5.56971 8.25779 6.32866Z" fill="#051445"/>
</svg>
