<svg width="11" height="11" viewBox="0 0 11 11" fill="none" xmlns="http://www.w3.org/2000/svg">
<g clip-path="url(#clip0)">
<path d="M9.47786 7.65582C8.81335 7.08747 8.13897 6.74319 7.48262 7.31069L7.0907 7.65367C6.80394 7.90265 6.27079 9.06596 4.20945 6.69469C2.14853 4.32641 3.37495 3.95767 3.66213 3.71084L4.0562 3.36743C4.70912 2.79865 4.46272 2.08263 3.99181 1.34557L3.70763 0.899135C3.23458 0.163799 2.71946 -0.319128 2.06482 0.248794L1.71111 0.557867C1.42178 0.768638 0.613037 1.45375 0.416862 2.75529C0.180764 4.31697 0.925545 6.1053 2.63189 8.06749C4.33608 10.0305 6.00465 11.0166 7.58521 10.9994C8.89877 10.9852 9.69206 10.2804 9.94018 10.0241L10.2952 9.71459C10.9481 9.1471 10.5424 8.5693 9.87751 7.99966L9.47786 7.65582Z" fill="#051445"/>
</g>
<defs>
<clipPath id="clip0">
<rect width="11" height="11" fill="white"/>
</clipPath>
</defs>
</svg>
